# xmcd
#
# Track frame offsets:
#	150
#	19609
#	33998
#	58486
#	83270
#	95208
#	124786
#	143702
#	162585
#	182410
#	198343
#	215906
#	235052
#	262793
#	281668
#	303243
#
# Disc length: 4655 seconds
#
# Revision: 0
# Processed by: cddbd v1.5PL3 Copyright (c) Steve Scherf et al.
# Submitted via: dBpowerAMP V4.0
#
DISCID=dd122d10
DTITLE=Dj Halou - DJ Halou Remixes
DYEAR=1900
DGENRE=General Techno
TTITLE0=Kalyante/Club Remix
TTITLE1=Sentello/Dj Halou
TTITLE2=Papi Chulo/Lorna Club Remix
TTITLE3=Get Busy/Sean Paul Club Remix
TTITLE4=In Da Club/Club Remix
TTITLE5=Saxo/Workal Remix
TTITLE6=Madonna Music/Club Remix
TTITLE7=Sexy Lady/Shaggy Club Remix
TTITLE8=Sepime/50 Cent Club Remix
TTITLE9=Life Is Life/DJ Otzi
TTITLE10=Sex Machine/James Brown Remix
TTITLE11=Techno Party/Club Remix
TTITLE12=Let's Get Up/Puff Daddy Remix
TTITLE13=Satisfaction/Benny Benassi
TTITLE14=Dudu/Tarkan Remix
TTITLE15=Blade/Blade Song Track
EXTD=
EXTT0=
EXTT1=
EXTT2=
EXTT3=
EXTT4=
EXTT5=
EXTT6=
EXTT7=
EXTT8=
EXTT9=
EXTT10=
EXTT11=
EXTT12=
EXTT13=
EXTT14=
EXTT15=
PLAYORDER=
